<svg xmlns="http://www.w3.org/2000/svg" xmlns:xlink="http://www.w3.org/1999/xlink" width="300" height="96"><defs><radialGradient xlink:href="#a" id="b" cx="65.9" cy="56.9" r="24" fx="65.9" fy="56.9" gradientTransform="matrix(.5 -.9 .7 .4 -9.3 91)" gradientUnits="userSpaceOnUse"/><radialGradient xlink:href="#a" id="c" cx="61.2" cy="64.8" r="24" fx="61.2" fy="64.8" gradientTransform="matrix(.7 -.7 .8 .7 165.6 43.4)" gradientUnits="userSpaceOnUse"/><linearGradient id="a"><stop offset="0" stop-color="#91d7e3"/><stop offset="1" stop-color="#8aadf4"/></linearGradient></defs><path fill="#11406b" d="m48 48 39-22.5v45L48 93Z"/><path fill="url(#b)" d="M68.8 36 48 48v24l21-12V36z"/><path fill="none" stroke="#8aadf4" stroke-linecap="round" stroke-linejoin="round" stroke-width="6" d="M87 25.5v45L48 93"/><g fill="none" stroke-linecap="round" stroke-linejoin="round" stroke-width="6"><path stroke="#91d7e3" d="M27 60.1 9 70.5M48 24V3"/><path stroke="#8aadf4" stroke-dashoffset="60" d="M69 60 48 72 27 60V36l21-12 21 12Z"/><path stroke="#91d7e3" d="M48 93 9 70.5v-45L48 3l39 22.5m-78 0L48 48m39-22.5L48 48m0 0v45"/></g><path stroke="#8aadf4" stroke-width="6" d="M68.8 60 87 70.5"/><path fill="none" stroke="#09c" stroke-linecap="round" stroke-linejoin="round" stroke-width="6" d="M9 25.5 27 36l21-12 21 12 18-10.5M48 93V48l21-12v24L48 72"/><path fill="none" stroke="#09c" stroke-linecap="round" stroke-linejoin="round" stroke-width="6" d="M9 25.5v45L48 93V48"/><path fill="url(#c)" d="M263.5 27.5h-25v24h25v-24z"/><path fill="none" stroke="#09c" stroke-width="10" d="M235 75V26h25l8 8v18h-28M157 21v49h-25l-8-8V21"/><path fill="none" stroke="#09c" stroke-linejoin="bevel" stroke-width="10" d="M217 36v23l-8 11-13-18-13 18-8-11V36"/></svg>